<svg id="Layer" enable-background="new 0 0 64 64" height="512" viewBox="0 0 64 64" width="512" xmlns="http://www.w3.org/2000/svg"><path d="m48 16h-4v-3c0-.552-.447-1-1-1h-26c-.553 0-1 .448-1 1v12c0 .552.447 1 1 1s1-.448 1-1v-11h12v5c0 .552.447 1 1 1s1-.448 1-1v-5h4v14c0 1.103-.898 2-2 2-1.103 0-2-.897-2-2v-5c0-.552-.447-1-1-1s-1 .448-1 1v5c0 2.206 1.794 4 4 4s4-1.794 4-4v-14h4v7 10 7c0 2.206-1.794 4-4 4h-16c-2.206 0-4-1.794-4-4v-7c0-.552-.447-1-1-1s-1 .448-1 1v7c0 1.538.586 2.937 1.54 4h-6.54c-.553 0-1 .448-1 1v3c0 3.309 2.691 6 6 6h28c3.309 0 6-2.691 6-6v-3c0-.552-.447-1-1-1h-6.541c.955-1.063 1.541-2.463 1.541-4v-2h4c3.309 0 6-2.691 6-6v-8c0-3.309-2.691-6-6-6zm0 30c0 2.206-1.794 4-4 4h-28c-2.206 0-4-1.794-4-4v-2h10 16 10zm-4-24h2c1.102 0 2 .897 2 2v4c0 1.103-.898 2-2 2h-2zm8 8c0 2.206-1.794 4-4 4h-4v-2h2c2.206 0 4-1.794 4-4v-4c0-2.206-1.794-4-4-4h-2v-2h4c2.206 0 4 1.794 4 4z"/><circle cx="17" cy="28" r="1"/></svg>