<?xml version="1.0"?>
<svg xmlns="http://www.w3.org/2000/svg" viewBox="0 0 64 64" width="512" height="512"><g id="Drink-Bottle"><path d="M43.832,30.555A1.006,1.006,0,0,0,44,30V17a1,1,0,0,0-.293-.707L42,14.586V14a1,1,0,0,0,1-1V11a1,1,0,0,0-.1-.447L41.171,7.105A1.99,1.99,0,0,0,39.382,6H35V3a1,1,0,0,0-1-1H30a1,1,0,0,0-1,1V6H24.618a1.99,1.99,0,0,0-1.789,1.105l-1.724,3.448A1,1,0,0,0,21,11v2a1,1,0,0,0,1,1v.586l-1.707,1.707A1,1,0,0,0,20,17V30a1.006,1.006,0,0,0,.168.555L22,33.3V34.7l-1.832,2.748A1.006,1.006,0,0,0,20,38V59a3,3,0,0,0,3,3H41a3,3,0,0,0,3-3V38a1.006,1.006,0,0,0-.168-.555L42,34.7V33.3ZM31,4h2V6H31Zm-8,7.236L24.618,8H39.382L41,11.236V12H23ZM40.168,35.555,42,38.3V59a1,1,0,0,1-1,1H23a1,1,0,0,1-1-1V38.3l1.832-2.748A1.006,1.006,0,0,0,24,35V33a1.006,1.006,0,0,0-.168-.555L22,29.7V17.414l1.707-1.707A1,1,0,0,0,24,15V14H40v1a1,1,0,0,0,.293.707L42,17.414V29.7l-1.832,2.748A1.006,1.006,0,0,0,40,33v2A1.006,1.006,0,0,0,40.168,35.555Z"/></g></svg>
