<svg id="Capa_1" enable-background="new 0 0 511.657 511.657" height="512" viewBox="0 0 511.657 511.657" width="512" xmlns="http://www.w3.org/2000/svg"><path d="m356.658 162.834-33.218-61.994h10.388v-100.84h-156v100.84h10.388l-33.217 61.993c-18.744 34.957-28.651 74.41-28.651 114.094v29.48h15v-29.48c0-37.219 9.292-74.221 26.871-107.007l37.016-69.079h101.188l37.016 69.081c17.578 32.785 26.87 69.787 26.87 107.006v185.64c0 18.797-15.293 34.09-34.091 34.09h-160.779c-18.798 0-34.091-15.292-34.091-34.09v-141.16h-15v141.16c0 27.068 22.022 49.09 49.091 49.09h160.779c27.068 0 49.091-22.021 49.091-49.09v-185.64c0-39.685-9.907-79.138-28.651-114.094zm-163.83-76.994v-70.84h126v70.84h-3.426c-.161-.301 5.56-.193-119.045-.193l-.104.193z"/><path d="m355.309 410.647v-133.72c0-31.938-7.432-64.047-21.49-92.859l-2.055-4.211h-151.871l-2.055 4.211c-14.059 28.812-21.49 60.921-21.49 92.859v185.64c0 10.526 8.564 19.09 19.091 19.09h160.779c10.526 0 19.091-8.563 19.091-19.09v-36.92h-15v36.92c0 2.255-1.835 4.09-4.091 4.09h-160.779c-2.256 0-4.091-1.834-4.091-4.09v-185.64c0-28.124 6.205-56.397 17.979-82.07h133.003c11.773 25.673 17.979 53.946 17.979 82.07v133.72z"/><path d="m211.18 32.147h15v42.092h-15z"/><path d="m248.328 32.147h15v42.092h-15z"/><path d="m285.477 32.147h15v42.092h-15z"/><path d="m325.309 314.157h-15l-.002-38.001 15-.055c.003 1.288.002 36.773.002 38.056zm-15.698-52.316c-.438-4.737-1.089-9.522-1.935-14.221l14.764-2.655c.921 5.119 1.63 10.333 2.106 15.496zm-5.077-28.23c-1.239-4.603-2.693-9.208-4.321-13.688l14.098-5.124c1.773 4.881 3.357 9.898 4.708 14.912z"/></svg>